<svg viewBox="0 0 96 96" xmlns="http://www.w3.org/2000/svg" xmlns:xlink="http://www.w3.org/1999/xlink" id="Icons_BoardRoom_M" overflow="hidden"><path d="M34.081 51.423 27.206 51.423 27.206 44.6C27.7385 44.9361 28.3553 45.1143 28.985 45.114L35.34 45.114C37.0732 45.1345 38.5476 43.8549 38.771 42.136 38.9588 40.3143 37.6342 38.6852 35.8125 38.4975 35.699 38.4858 35.585 38.4799 35.471 38.48L30.071 38.48 27.261 36.418C26.7326 36.016 26.2253 35.5871 25.741 35.133L25.351 34.782C24.1695 33.7285 22.5964 33.2262 21.023 33.4 18.121 33.7534 15.9549 36.242 16.005 39.165L16.005 52.45C16.0078 55.5606 18.5284 58.0817 21.639 58.085L30.766 58.085 30.766 68.742C30.744 70.4756 32.0237 71.9509 33.743 72.174 33.854 72.185 33.965 72.19 34.075 72.19 35.9053 72.1961 37.3939 70.7173 37.4 68.887 37.4 68.8827 37.4 68.8783 37.4 68.874L37.4 54.74C37.3978 52.9082 35.9128 51.4241 34.081 51.423ZM24.9 40.408C24.4554 40.0802 23.8293 40.1749 23.5015 40.6195 23.1737 41.0641 23.2684 41.6902 23.713 42.018L25.213 43.118 25.213 53.418 34.088 53.418C34.8151 53.4213 35.4022 54.0129 35.4 54.74L35.4 68.874C35.4008 69.6008 34.8123 70.1907 34.0855 70.1915 34.0382 70.1915 33.991 70.189 33.944 70.184 33.2431 70.0711 32.7377 69.4513 32.768 68.742L32.768 56.085 21.639 56.085C19.6327 56.0822 18.0072 54.4562 18.005 52.45L18.005 39.143C17.966 37.2421 19.3686 35.6186 21.255 35.381 22.2606 35.2713 23.2654 35.5942 24.019 36.269L24.4 36.611C24.9348 37.111 25.4949 37.5833 26.078 38.026L29.418 40.475 35.472 40.475C36.1994 40.4753 36.7888 41.0652 36.7885 41.7925 36.7884 41.8391 36.786 41.8857 36.781 41.932 36.6685 42.6329 36.0493 43.1388 35.34 43.109L28.987 43.109C28.706 43.1083 28.4323 43.0198 28.204 42.856Z"/><path d="M21.005 32.2C23.7664 32.2 26.005 29.9614 26.005 27.2 26.005 24.4386 23.7664 22.2 21.005 22.2 18.2436 22.2 16.005 24.4386 16.005 27.2 16.005 29.9614 18.2436 32.2 21.005 32.2ZM21.005 24.2C22.6619 24.2 24.005 25.5431 24.005 27.2 24.005 28.8569 22.6619 30.2 21.005 30.2 19.3481 30.2 18.005 28.8569 18.005 27.2 18.005 25.5431 19.3481 24.2 21.005 24.2Z"/><path d="M28 61 21 61C16.5838 60.995 13.005 57.4162 13 53L13 40C13 39.4477 12.5523 39 12 39 11.4477 39 11 39.4477 11 40L11 53C11.0052 57.7505 14.3467 61.8438 19 62.8L19 71 14 71 14 73 26 73 26 71 21 71 21 63 28 63C28.5523 63 29 62.5523 29 62 29 61.4477 28.5523 61 28 61Z"/><path d="M49 49 65 49C65.5523 49 66 48.5523 66 48 66 47.4477 65.5523 47 65 47L31 47C30.4477 47 30 47.4477 30 48 30 48.5523 30.4477 49 31 49L47 49 47 71 40 71 40 73 56 73 56 71 49 71Z"/><path d="M80 52.45 80 39.178C80.055 36.244 77.8804 33.7445 74.967 33.393 73.3983 33.2249 71.8316 33.7272 70.653 34.776L70.263 35.128C69.7785 35.5819 69.2712 36.0108 68.743 36.413L65.932 38.475 60.532 38.475C58.6995 38.4754 57.2143 39.9613 57.2147 41.7937 57.2148 41.9064 57.2205 42.0189 57.232 42.131 57.4559 43.85 58.9306 45.1296 60.664 45.109L67.02 45.109C67.6495 45.1109 68.2667 44.9344 68.8 44.6L68.8 51.428 61.927 51.428C60.0958 51.4302 58.6118 52.9138 58.609 54.745L58.609 68.874C58.6084 70.7048 60.0922 72.1895 61.923 72.19 61.9263 72.19 61.9297 72.19 61.933 72.19 62.043 72.19 62.153 72.19 62.265 72.174 63.9841 71.9505 65.2636 70.4754 65.242 68.742L65.242 58.085 74.369 58.085C77.4784 58.08 79.9973 55.5594 80 52.45ZM67.8 42.856C67.572 43.0196 67.2986 43.108 67.018 43.109L60.668 43.109C59.9591 43.137 59.3406 42.6321 59.226 41.932 59.1487 41.2088 59.6723 40.5598 60.3955 40.4825 60.4422 40.4775 60.4891 40.475 60.536 40.475L66.59 40.475 69.93 38.026C70.513 37.5836 71.0728 37.1113 71.607 36.611L71.989 36.268C72.7386 35.5966 73.7372 35.2736 74.738 35.379 76.6347 35.6152 78.0444 37.2492 78 39.16L78 52.45C77.9978 54.4563 76.3723 56.0822 74.366 56.085L63.242 56.085 63.242 68.742C63.2723 69.4516 62.7663 70.0715 62.065 70.184 61.6921 70.227 61.319 70.1054 61.043 69.851 60.7655 69.6022 60.6075 69.2467 60.609 68.874L60.609 54.74C60.6101 54.0127 61.1997 53.4236 61.927 53.423L70.8 53.423 70.8 43.123 72.3 42.023C72.7446 41.6949 72.8391 41.0686 72.511 40.624 72.1829 40.1794 71.5566 40.0849 71.112 40.413Z"/><path d="M75 32.2C77.7614 32.2 80 29.9614 80 27.2 80 24.4386 77.7614 22.2 75 22.2 72.2386 22.2 70 24.4386 70 27.2 70 29.9614 72.2386 32.2 75 32.2ZM75 24.2C76.6569 24.2 78 25.5431 78 27.2 78 28.8569 76.6569 30.2 75 30.2 73.3431 30.2 72 28.8569 72 27.2 72 25.5431 73.3431 24.2 75 24.2Z"/><path d="M84 39C83.4477 39 83 39.4477 83 40L83 53C82.995 57.4162 79.4162 60.995 75 61L68 61C67.4477 61 67 61.4477 67 62 67 62.5523 67.4477 63 68 63L75 63 75 71 70 71 70 73 82 73 82 71 77 71 77 62.8C81.653 61.8435 84.9944 57.7503 85 53L85 40C85 39.4477 84.5523 39 84 39Z"/></svg>