<svg xmlns="http://www.w3.org/2000/svg" xmlns:xlink="http://www.w3.org/1999/xlink" width="223.505" height="50.232" viewBox="0 0 223.505 50.232"><path fill="#FFF" d="M193.86 12.1v36.51h29.645v-9.89h-18.983v-4.272h17.514v-9.04h-17.514v-3.78h18.983V12.1"/><defs><path id="a" d="M0 0h223.505v50.232H0z"/></defs><clipPath id="b"><use xlink:href="#a" overflow="visible"/></clipPath><path clip-path="url(#b)" fill="#FFF" d="M138.662 10.644c-10.86 0-19.664 8.805-19.664 19.67 0 10.855 8.803 19.66 19.664 19.66 8.488 0 19.675-5.432 19.663-19.66-.01-10.865-8.803-19.67-19.663-19.67"/><path clip-path="url(#b)" fill="#FFF" d="M181.43 12.02v13.61c0 2.166.02 4.305.05 6.456-1.485-1.938-3.062-3.968-4.732-6.066l-10.778-14h-8.79v6.235l.18.266c2.225 3.304 3.4 7.106 3.404 10.995.004 4.452-1.14 9.168-3.397 12.44l-.187.67v6.022h9.48v-14.61c0-2.153-.025-4.32-.055-6.456 1.73 2.258 3.237 4.187 4.713 6.042l10.777 15.025h8.813V12.02h-9.48zM36.212 48.755h10.52l-.07-36.867h-10.52M23.21 33.696c4.556-1.73 7.736-5.336 7.736-9.842 0-3.943-2.204-7.78-5.563-9.642-2.916-1.61-5.97-2.218-11.403-2.218H0L.025 48.69h10.377l-.025-13.605h2.214l9.484 13.604h12.058L23.21 33.695zM10.377 20.298h2.228c2.768 0 4.674.26 5.83.797 1.17.54 1.627 1.976 1.627 3.276 0 1.293-.517 2.135-1.615 2.642-1.064.476-2.646.707-4.835.707h-3.235v-7.422zM69.976 20.45c3.298 0 6.742 1.52 9.215 4.065l.603.62 7.974-5.79-.523-.656c-3.91-4.892-10.223-7.585-17.782-7.585-11.953 0-20.3 8.044-20.3 19.563 0 9.422 6.352 19.563 20.3 19.563 7.674 0 13.655-2.584 17.778-7.68l.182-.226V27.507h-17.2v8.373h5.595v3.387c-1.772 1.015-4.008 1.568-6.355 1.568-5.282 0-8.695-3.99-8.695-10.167 0-4.94 2.42-10.217 9.21-10.217"/><path clip-path="url(#b)" fill="#EEB726" d="M152.21 23.234l-.527-.913-1.395-2.42-1.992-3.46-2.317-4.024-2.37-4.114-2.15-3.732c-.55-.96-1.103-1.92-1.656-2.878l-.893-1.55-.08-.142-.85 1.472-2.005 3.482-2.355 4.092c-.634 1.1-1.268 2.2-1.9 3.3l-.528.916c-.026.048-.146.187-.115.242.263.456.524.912.788 1.368.575 1 1.15 2 1.728 3 .75 1.305 1.502 2.61 2.253 3.914.79 1.368 1.577 2.737 2.365 4.105.688 1.194 1.375 2.387 2.06 3.58.45.777.897 1.553 1.345 2.33.357.622.73 1.237 1.05 1.88.61 1.234.812 2.684.69 4.05-.096 1.073-.406 2.123-.912 3.075-.99 1.87-2.704 3.31-4.72 3.956-2.07.665-4.372.464-6.295-.552 2.46 1.357 5.28 2.01 8.086 1.886 2.56-.112 5.075-.873 7.267-2.202 1.882-1.14 3.51-2.688 4.75-4.506 1.26-1.853 2.105-3.978 2.46-6.19.413-2.605.152-5.31-.768-7.783-.282-.752-.62-1.48-1.013-2.18"/><path clip-path="url(#b)" fill="#FEDB2B" d="M137.72 44.76c2.016-.645 3.73-2.086 4.722-3.955.504-.95.814-2.003.91-3.075.12-1.335-.07-2.75-.652-3.968-.65.474-1.413.714-2.284.464-.69-.196-1.293-.637-1.81-1.122-.568-.53-1.06-1.142-1.506-1.774-.674-.954-1.252-1.973-1.835-2.985l-.95-1.653c-.725-1.256-1.447-2.51-2.17-3.766l-2.21-3.838c-.35-.605-.696-1.21-1.046-1.815h-.002c-.51.884-1.02 1.77-1.528 2.655l-1.858 3.226c-1.18 2.05-1.86 4.38-1.992 6.742-.155 2.807.462 5.635 1.792 8.112 1.134 2.11 2.764 3.945 4.723 5.322.477.335.973.642 1.484.92 1.904.977 4.17 1.166 6.21.51"/><path clip-path="url(#b)" fill="#FFF" d="M118.353 39.268h-12.16c-.353 0-.562-.4-.36-.69l13.192-18.94c.013-.02.024-.04.035-.063 1.165-2.515 2.753-4.795 4.68-6.74.048-.05.084-.107.105-.17.092-.285-.12-.575-.418-.575h-31.76c-.243 0-.44.196-.44.44v8.257c0 .242.197.44.44.44h14.527c.355 0 .563.398.36.69L88.5 47.844c-.204.292.004.69.36.69h36.492c.055 0 .105-.01.15-.026-3.122-2.39-5.607-5.568-7.15-9.242"/></svg>